<svg version="1.0" xmlns="http://www.w3.org/2000/svg"
 width="50pt" height="30pt" viewBox="0 0 748.000000 366.000000" fill="#FFFFFF"
 preserveAspectRatio="xMidYMid meet">

<g transform="translate(0.000000,366.000000) scale(0.100000,-0.100000)"
 stroke="none">
<path d="M670 2200 l0 -990 594 0 594 0 16 47 c18 54 21 168 5 245 -17 85
-102 244 -220 415 -135 192 -171 253 -214 358 -103 251 -94 552 26 828 l38 87
-420 0 -419 0 0 -990z"/>
<path d="M2950 3153 c-80 -97 -126 -251 -116 -386 11 -160 71 -282 265 -542
208 -278 284 -412 321 -567 32 -133 23 -272 -25 -389 l-24 -59 605 0 604 0 0
990 0 990 -799 0 -800 0 -31 -37z"/>
<path d="M6019 2368 c0 -453 -3 -845 -5 -873 -14 -148 -44 -230 -97 -264 l-32
-21 562 0 563 0 0 990 0 990 -495 0 -495 0 -1 -822z"/>
<path d="M2067 2818 c-51 -70 -101 -176 -128 -273 -18 -63 -23 -106 -22 -205
0 -143 20 -246 79 -394 48 -121 86 -188 225 -398 192 -290 226 -379 216 -578
-8 -159 -49 -273 -136 -380 -21 -25 -41 -50 -44 -57 -6 -9 75 -12 352 -13
l361 0 29 40 c43 60 91 181 113 290 16 75 19 118 15 205 -10 206 -66 340 -280
673 -164 254 -211 353 -236 496 -15 84 -13 219 4 300 20 93 83 219 145 289
l52 57 -354 0 -353 0 -38 -52z"/>
<path d="M4842 1837 l3 -1032 33 -68 c122 -248 470 -237 589 18 l28 60 3 1028
3 1027 -331 0 -330 0 2 -1033z"/>
</g>
</svg>
